<svg width="24" height="24" viewBox="0 0 24 24" fill="none" xmlns="http://www.w3.org/2000/svg">
<path d="M12 0V10.0215C12 10.6374 12.0002 10.9454 12.1201 11.1807C12.2256 11.3876 12.3937 11.5557 12.6006 11.6611C12.8359 11.781 13.1439 11.7812 13.7598 11.7812H24V12.2188H13.7598C13.1439 12.2188 12.8359 12.219 12.6006 12.3389C12.3937 12.4443 12.2256 12.6124 12.1201 12.8193C12.0002 13.0546 12 13.3626 12 13.9785V24H8.7998C5.71965 24 4.17942 23.9998 3.00293 23.4004C1.96816 22.8731 1.12689 22.0318 0.599609 20.9971C0.000157894 19.8206 2.68315e-10 18.2804 0 15.2002V8.7998C2.68315e-10 5.71965 0.000157894 4.17942 0.599609 3.00293C1.12689 1.96816 1.96816 1.12689 3.00293 0.599609C4.17942 0.000157894 5.71965 2.68315e-10 8.7998 0H12ZM19.752 23.8047C19.6569 23.8224 19.5591 23.8389 19.458 23.8535C19.5591 23.8389 19.6569 23.8224 19.752 23.8047ZM23.8047 19.752H23.8057H23.8047ZM23.8047 4.24805H23.8057H23.8047ZM19.752 0.195312V0.194336V0.195312Z" fill="black"/>
<path d="M5.52656 9.4165C5.52656 9.91355 5.12362 10.3165 4.62656 10.3165C4.12951 10.3165 3.72656 9.91355 3.72656 9.4165C3.72656 8.91944 4.12951 8.5165 4.62656 8.5165C5.12362 8.5165 5.52656 8.91944 5.52656 9.4165Z" fill="white"/>
<path d="M5.52656 12C5.52656 12.4971 5.12362 12.9 4.62656 12.9C4.12951 12.9 3.72656 12.4971 3.72656 12C3.72656 11.5029 4.12951 11.1 4.62656 11.1C5.12362 11.1 5.52656 11.5029 5.52656 12Z" fill="white"/>
<path d="M5.52578 14.5836C5.52578 15.0807 5.12284 15.4836 4.62578 15.4836C4.12872 15.4836 3.72578 15.0807 3.72578 14.5836C3.72578 14.0865 4.12872 13.6836 4.62578 13.6836C5.12284 13.6836 5.52578 14.0865 5.52578 14.5836Z" fill="white"/>
<path d="M3.25312 12C3.25312 12.4971 2.85018 12.9 2.35312 12.9C1.85607 12.9 1.45312 12.4971 1.45312 12C1.45312 11.5029 1.85607 11.1 2.35312 11.1C2.85018 11.1 3.25312 11.5029 3.25312 12Z" fill="white"/>
<path d="M3.25312 14.5836C3.25312 15.0807 2.85018 15.4836 2.35312 15.4836C1.85607 15.4836 1.45312 15.0807 1.45312 14.5836C1.45312 14.0865 1.85607 13.6836 2.35312 13.6836C2.85018 13.6836 3.25312 14.0865 3.25312 14.5836Z" fill="white"/>
<path d="M7.79922 9.41562C7.79922 9.91268 7.39627 10.3156 6.89922 10.3156C6.40216 10.3156 5.99922 9.91268 5.99922 9.41562C5.99922 8.91857 6.40216 8.51562 6.89922 8.51562C7.39627 8.51562 7.79922 8.91857 7.79922 9.41562Z" fill="white"/>
<path d="M7.79922 12C7.79922 12.4971 7.39627 12.9 6.89922 12.9C6.40216 12.9 5.99922 12.4971 5.99922 12C5.99922 11.5029 6.40216 11.1 6.89922 11.1C7.39627 11.1 7.79922 11.5029 7.79922 12Z" fill="white"/>
<path d="M7.79922 14.5836C7.79922 15.0807 7.39627 15.4836 6.89922 15.4836C6.40216 15.4836 5.99922 15.0807 5.99922 14.5836C5.99922 14.0865 6.40216 13.6836 6.89922 13.6836C7.39627 13.6836 7.79922 14.0865 7.79922 14.5836Z" fill="white"/>
<path d="M10.0727 9.41562C10.0727 9.91268 9.66971 10.3156 9.17266 10.3156C8.6756 10.3156 8.27266 9.91268 8.27266 9.41562C8.27266 8.91857 8.6756 8.51562 9.17266 8.51562C9.66971 8.51562 10.0727 8.91857 10.0727 9.41562Z" fill="white"/>
<path d="M10.0727 12C10.0727 12.4971 9.66971 12.9 9.17266 12.9C8.6756 12.9 8.27266 12.4971 8.27266 12C8.27266 11.5029 8.6756 11.1 9.17266 11.1C9.66971 11.1 10.0727 11.5029 10.0727 12Z" fill="white"/>
</svg>
